<svg width="11" height="11" viewBox="0 0 11 11" fill="none" xmlns="http://www.w3.org/2000/svg">
<g clip-path="url(#clip0_26_5)">
<path d="M6.91155 7.84178C6.91155 7.8309 6.91155 7.82014 6.91155 7.80949H4.87904C4.87904 7.82014 4.87904 7.8309 4.87904 7.84178C4.87904 7.8464 4.87939 7.85207 4.87939 7.85775C4.87939 8.23033 4.57742 8.5323 4.20484 8.5323C3.83226 8.5323 3.53029 8.23033 3.53029 7.85775C3.53029 7.85207 3.53029 7.84675 3.53065 7.84107V7.84178C3.53065 7.8309 3.53065 7.82014 3.53065 7.80949H3.29894C3.09171 7.80949 2.9182 7.66365 2.87597 7.46885L2.87562 7.46601L1.5212 1.05301L0.364068 0.860331C0.165359 0.818105 0.0184555 0.644234 0.0184555 0.435944C0.0184555 0.196782 0.212552 0.00268555 0.451714 0.00268555C0.47052 0.00268555 0.488972 0.00375006 0.507423 0.00623393L0.505294 0.0058791L1.95339 0.247169C2.12975 0.277331 2.26813 0.41075 2.30504 0.581782L2.30539 0.584621L2.55094 1.74281L6.77529 2.09481C6.75081 2.22114 6.73626 2.36662 6.73555 2.51565V2.51707C6.73555 2.65972 6.74797 2.79952 6.7721 2.93543L6.76997 2.92123C6.56736 2.98617 6.42329 3.17281 6.42329 3.39317C6.42329 3.42617 6.42649 3.45811 6.43252 3.48933L6.43217 3.48614L6.68729 5.32775C6.70291 5.44591 6.75684 5.54952 6.83562 5.62759C6.90729 5.69891 7.00558 5.74362 7.11452 5.74469H7.11488C7.139 5.74469 7.16278 5.7422 7.18549 5.73794L7.183 5.7383C7.39626 5.68152 7.55133 5.49027 7.55133 5.26246C7.55133 5.23052 7.54813 5.19894 7.54246 5.16878L7.54281 5.17198L7.40371 4.17062C7.8352 4.61807 8.43984 4.89591 9.10978 4.89591C9.12504 4.89591 9.14029 4.89591 9.1552 4.89378L9.1882 4.89201L8.95081 6.27659C8.9391 6.34507 8.87984 6.39688 8.80888 6.39688H8.80852H3.5342L3.65023 6.94581H8.67368C8.90752 6.95291 9.09417 7.14417 9.09417 7.37872C9.09417 7.61327 8.90752 7.80452 8.67439 7.81162H8.67368H8.26065C8.26065 7.82227 8.26065 7.83303 8.26065 7.84391C8.26065 8.21649 7.95868 8.51846 7.5861 8.51846C7.21352 8.51846 6.91155 8.21649 6.91155 7.84391V7.84178ZM7.39342 7.84178C7.39378 7.94717 7.47929 8.03233 7.58468 8.03233C7.69007 8.03233 7.77594 7.94682 7.77594 7.84107C7.77594 7.83007 7.77488 7.81907 7.7731 7.80843V7.80949H7.39697C7.3952 7.81907 7.39413 7.83043 7.39413 7.84178H7.39342ZM4.01252 7.84178C4.01287 7.94717 4.09839 8.03233 4.20378 8.03233C4.30917 8.03233 4.39504 7.94682 4.39504 7.84107C4.39504 7.83007 4.39397 7.81907 4.3922 7.80843V7.80949H4.01571C4.01394 7.81907 4.01323 7.82972 4.01323 7.84107V7.84178H4.01252ZM5.38468 2.9184C5.17142 2.97481 5.01636 3.16643 5.01636 3.39388C5.01636 3.42617 5.01955 3.4574 5.02523 3.48791L5.02488 3.48472L5.28 5.32633C5.29562 5.44449 5.34955 5.54811 5.42833 5.62617C5.5 5.69749 5.59829 5.7422 5.70723 5.74327C5.73136 5.74327 5.75549 5.74078 5.7782 5.73652L5.77571 5.73688C5.98897 5.68011 6.14404 5.48885 6.14404 5.26104C6.14404 5.22911 6.14084 5.19752 6.13517 5.16736L6.13552 5.17056L5.88039 3.32894C5.86478 3.21078 5.81084 3.10717 5.73207 3.02911C5.66039 2.95778 5.5621 2.91307 5.45317 2.91165H5.45281C5.42833 2.91165 5.40455 2.91414 5.38149 2.91875L5.38397 2.9184H5.38468ZM3.97739 2.9184C3.76342 2.97481 3.60836 3.16643 3.60836 3.39423C3.60836 3.42688 3.61155 3.45846 3.61758 3.48933L3.61723 3.48614L3.87236 5.32775C3.88797 5.44591 3.94191 5.54952 4.02068 5.62759C4.09236 5.69891 4.19065 5.74362 4.29958 5.74469H4.29994C4.32407 5.74469 4.34784 5.7422 4.37055 5.73794L4.36807 5.7383C4.58168 5.68188 4.73675 5.49027 4.73675 5.26246C4.73675 5.23052 4.73355 5.1993 4.72788 5.16878L4.72823 5.17198L4.47275 3.3293C4.45713 3.21114 4.4032 3.10752 4.32442 3.02946C4.25275 2.95778 4.15446 2.91343 4.04552 2.91201H4.04517C4.02104 2.91201 3.99762 2.91449 3.97491 2.91875L3.97739 2.9184ZM7.09607 2.51814C7.09607 1.40536 7.99807 0.503363 9.11084 0.503363C10.2236 0.503363 11.1256 1.40536 11.1256 2.51814C11.1256 3.63091 10.2236 4.53291 9.11084 4.53291C7.99807 4.5322 7.09642 3.63056 7.09536 2.51778L7.09607 2.51814ZM7.67339 2.51814C7.67375 3.31191 8.31707 3.95523 9.11084 3.95523C9.90462 3.95523 10.5483 3.31156 10.5483 2.51778C10.5483 1.72401 9.90462 1.08033 9.11084 1.08033C8.31707 1.08104 7.67375 1.72401 7.67268 2.51778L7.67339 2.51814ZM8.82307 3.09333V2.80662H8.53636C8.37704 2.80662 8.24752 2.67746 8.24752 2.51778C8.24752 2.3581 8.37668 2.22894 8.53636 2.22894H8.82307V1.94223C8.82307 1.78291 8.95223 1.6534 9.11191 1.6534C9.27159 1.6534 9.40075 1.78256 9.40075 1.94223V2.22894H9.68746C9.84678 2.22894 9.97629 2.3581 9.97629 2.51778C9.97629 2.67746 9.84713 2.80662 9.68746 2.80662H9.40075V3.09298C9.40075 3.2523 9.27159 3.38181 9.11191 3.38181C8.95223 3.38181 8.82307 3.25265 8.82307 3.09298V3.09333Z" fill="#EC3525" stroke="#EC3525" stroke-width="0.00064"/>
</g>
<defs>
<clipPath id="clip0_26_5">
<rect width="11" height="11" fill="white"/>
</clipPath>
</defs>
</svg>
