<svg width="69" height="72" viewBox="0 0 69 72" fill="none" xmlns="http://www.w3.org/2000/svg">
<path d="M55.2445 36L51.1506 14.4009H47.739L52.174 38.0495C53.1975 37.1036 54.221 36.4729 55.2445 36ZM30.5672 52.081H47.739V56.8108H30.5672V52.081Z" fill="#81D4FA" stroke="#0277BD" stroke-miterlimit="10" stroke-linecap="round" stroke-linejoin="round"/>
<path d="M60.2482 71C65.9007 71 70.483 64.6473 70.483 56.8108C70.483 48.9744 65.9007 42.6216 60.2482 42.6216C54.5956 42.6216 50.0134 48.9744 50.0134 56.8108C50.0134 64.6473 54.5956 71 60.2482 71Z" fill="#039BE5" stroke="#0277BD" stroke-miterlimit="10" stroke-linecap="round" stroke-linejoin="round"/>
<path d="M47.739 56.8108H44.3274C44.3274 44.6712 51.4917 34.7388 60.2482 34.7388C64.1147 34.7388 67.7537 36.6307 70.5967 40.0991C71.0516 40.7298 71.1653 41.8334 70.7104 42.464L69.9144 43.5676C69.4595 44.1982 68.8909 44.1982 68.436 43.7253C66.1616 41.0451 63.3186 39.6262 60.3619 39.6262C53.425 39.4685 47.739 47.3514 47.739 56.8108Z" fill="#81D4FA" stroke="#0277BD" stroke-miterlimit="10" stroke-linecap="round" stroke-linejoin="round"/>
<path d="M60.2482 63.1171C62.7604 63.1171 64.797 60.2937 64.797 56.8108C64.797 53.3279 62.7604 50.5045 60.2482 50.5045C57.7359 50.5045 55.6994 53.3279 55.6994 56.8108C55.6994 60.2937 57.7359 63.1171 60.2482 63.1171Z" fill="#EEEEEE" stroke="#0277BD" stroke-miterlimit="10" stroke-linecap="round" stroke-linejoin="round"/>
<path d="M15.7836 71C21.4361 71 26.0184 64.6473 26.0184 56.8108C26.0184 48.9744 21.4361 42.6216 15.7836 42.6216C10.1311 42.6216 5.54881 48.9744 5.54881 56.8108C5.54881 64.6473 10.1311 71 15.7836 71Z" fill="#039BE5" stroke="#0277BD" stroke-miterlimit="10" stroke-linecap="round" stroke-linejoin="round"/>
<path d="M65.9342 64.6937C64.4558 66.7432 62.4089 68.0045 60.3619 68.0045C58.3149 68.0045 56.268 66.9009 54.7896 64.6937M21.4696 64.6937C19.9913 66.7432 17.9443 68.0045 15.8973 68.0045C13.8504 68.0045 11.8034 66.9009 10.3251 64.6937" stroke="#0277BD" stroke-miterlimit="10" stroke-linecap="round" stroke-linejoin="round"/>
<path d="M54.6759 49.0856C56.1542 47.036 58.2012 45.7748 60.2482 45.7748C62.2951 45.7748 64.3421 46.8784 65.8205 49.0856" stroke="#29B6F6" stroke-miterlimit="10" stroke-linecap="round" stroke-linejoin="round"/>
<path d="M15.7836 63.1171C18.2958 63.1171 20.3324 60.2937 20.3324 56.8108C20.3324 53.3279 18.2958 50.5045 15.7836 50.5045C13.2714 50.5045 11.2348 53.3279 11.2348 56.8108C11.2348 60.2937 13.2714 63.1171 15.7836 63.1171Z" fill="#EEEEEE" stroke="#0277BD" stroke-miterlimit="10" stroke-linecap="round" stroke-linejoin="round"/>
<path d="M30.5672 56.8108H2.1372C1.45488 56.8108 1 56.1802 1 55.2342V49.7162C1 41.045 6.1174 33.9504 12.372 33.9504H30.5672V56.8108Z" fill="#81D4FA" stroke="#0277BD" stroke-miterlimit="10" stroke-linecap="round" stroke-linejoin="round"/>
<path d="M3.2744 49.8738C3.2744 42.9369 7.36833 37.2612 12.372 37.2612H28.2928" stroke="#E1F5FE" stroke-miterlimit="10" stroke-linecap="round" stroke-linejoin="round"/>
<path d="M26.0184 56.8108H5.54881V52.8694C5.54881 48.455 8.05065 44.9865 11.2348 44.9865H20.3324C23.5166 44.9865 26.0184 48.455 26.0184 52.8694V56.8108Z" fill="#81D4FA" stroke="#0277BD" stroke-miterlimit="10" stroke-linecap="round" stroke-linejoin="round"/>
<path d="M29.43 24.6486H8.96041C7.02717 24.6486 5.54881 26.6982 5.54881 29.3783C5.54881 32.0585 7.02717 34.1081 8.96041 34.1081H29.43C31.3633 34.1081 32.8416 32.0585 32.8416 29.3783C32.8416 26.6982 31.3633 24.6486 29.43 24.6486Z" fill="#EEEEEE" stroke="#0277BD" stroke-miterlimit="10" stroke-linecap="round" stroke-linejoin="round"/>
<path d="M21.4696 24.6486H6.68601C6.00369 24.6486 5.54881 24.018 5.54881 23.0721V2.57658C5.54881 1.63063 6.00369 1 6.68601 1H21.4696C22.1519 1 22.6068 1.63063 22.6068 2.57658V23.0721C22.6068 23.8603 22.1519 24.6486 21.4696 24.6486Z" fill="#FFA726" stroke="#0277BD" stroke-miterlimit="10" stroke-linecap="round" stroke-linejoin="round"/>
<path d="M5.88996 1.47297L10.0976 8.88288H18.058L22.2657 1.47297C22.0382 1.15766 21.8108 1 21.4696 1H6.686C6.34484 1 6.1174 1.15766 5.88996 1.47297Z" fill="#FFA726" stroke="#0277BD" stroke-miterlimit="10" stroke-linecap="round" stroke-linejoin="round"/>
<path d="M7.82321 21.4955H20.3324" stroke="#F57C00" stroke-miterlimit="10" stroke-linecap="round" stroke-linejoin="round"/>
<path d="M21.4696 24.6486H6.68601C6.00369 24.6486 5.54881 24.018 5.54881 23.0721V2.57658C5.54881 1.63063 6.00369 1 6.68601 1H21.4696C22.1519 1 22.6068 1.63063 22.6068 2.57658V23.0721C22.6068 23.8603 22.1519 24.6486 21.4696 24.6486Z" fill="#FFA726" stroke="#0277BD" stroke-miterlimit="10" stroke-linecap="round" stroke-linejoin="round"/>
<path d="M5.88996 1.47297L10.0976 8.88288H18.058L22.2657 1.47297C22.0382 1.15766 21.8108 1 21.4696 1H6.686C6.34484 1 6.1174 1.15766 5.88996 1.47297Z" fill="#FFA726" stroke="#0277BD" stroke-miterlimit="10" stroke-linecap="round" stroke-linejoin="round"/>
<path d="M7.82321 21.4955H20.3324" stroke="#F57C00" stroke-miterlimit="10" stroke-linecap="round" stroke-linejoin="round"/>
<path d="M50.3545 9.51355H42.3941C41.7118 9.51355 41.2569 10.1442 41.2569 11.0901V12.6667C41.2569 13.6126 41.7118 14.2433 42.3941 14.2433H50.3545C51.0368 14.2433 51.4917 13.6126 51.4917 12.6667V11.0901C51.4917 10.3018 51.0368 9.51355 50.3545 9.51355Z" fill="#039BE5" stroke="#0277BD" stroke-miterlimit="10" stroke-linecap="round" stroke-linejoin="round"/>
<path d="M7.82321 53.6577H23.744" stroke="#29B6F6" stroke-miterlimit="10" stroke-linecap="round" stroke-linejoin="round"/>
<path d="M8.96041 27.8018H29.43" stroke="white" stroke-miterlimit="10" stroke-linecap="round" stroke-linejoin="round"/>
<path d="M57.5189 30.482H56.3817C55.6994 30.482 55.2445 29.8514 55.2445 28.9054V19.446C55.2445 18.5 55.6994 17.8694 56.3817 17.8694H57.5189C58.2012 17.8694 58.6561 18.5 58.6561 19.446V28.9054C58.6561 29.6937 58.0875 30.482 57.5189 30.482Z" fill="#FFA726" stroke="#0277BD" stroke-miterlimit="10" stroke-linecap="round" stroke-linejoin="round"/>
<path d="M52.5152 21.8108L53.425 26.5405H55.2445V21.8108H52.5152Z" fill="#81D4FA" stroke="#0277BD" stroke-miterlimit="10" stroke-linecap="round" stroke-linejoin="round"/>
</svg>
