<svg width="26" height="26" viewBox="0 0 26 26" fill="none" xmlns="http://www.w3.org/2000/svg">
<path d="M13.6258 1.43436C12.9776 0.83583 11.9067 0.858919 11.2907 1.4847L1.4065 11.5259C1.1447 11.7917 1 12.1358 1 12.4924V23.5487C1 24.3503 1.71635 25 2.6 25H7.4C8.28365 25 9 24.3503 9 23.5487V18.4694C9 17.6678 9.71635 17.0181 10.6 17.0181H15.4C16.2837 17.0181 17 17.6678 17 18.4694V23.5487C17 24.3503 17.7163 25 18.6 25H23.4C24.2837 25 25 24.3503 25 23.5487V12.5323C25 12.1519 24.8354 11.7868 24.5414 11.5154L13.6258 1.43436Z" stroke="#ACACAC" stroke-width="1.152"/>
</svg>
