<svg width="24" height="24" viewBox="0 0 24 24" fill="none" xmlns="http://www.w3.org/2000/svg">
<path d="M12.0519 2.14603V23.9858C15.9633 22.1321 20.1105 21.4554 24 22.049C24 14.7691 24 7.48916 24 0.209238C20.1105 -0.38438 15.9633 0.292441 12.0519 2.14603ZM21.8677 9.818C19.2371 9.4174 16.4523 9.90723 13.8128 11.2355L13.3694 10.2337C16.1933 8.81214 19.1831 8.28957 22.0149 8.72151L21.8677 9.818ZM21.8677 5.37723C19.2371 4.97663 16.4523 5.46646 13.8128 6.79473L13.3694 5.79291C16.1933 4.37137 19.1831 3.84852 22.0149 4.28074L21.8677 5.37723Z" fill="#EC3525"/>
<path d="M0 0.223405C0 7.50332 0 14.7833 0 22.0632C3.88944 21.4696 8.03655 22.1464 11.948 24V2.1602C8.03661 0.306609 3.88944 -0.370156 0 0.223405Z" fill="#EC3525"/>
</svg>
