<svg width="26" height="26" viewBox="0 0 26 26" fill="none" xmlns="http://www.w3.org/2000/svg">
<path d="M24.588 1.20477C20.7941 0.61343 16.793 1.31007 13 3.21297C9.2073 1.30975 5.20634 0.613164 1.41203 1.20477L1 1.26886V22.9403L1.54795 22.8547C5.22014 22.2819 9.1077 22.9798 12.7642 24.8575L12.8377 24.9004L12.9754 24.9923L12.9858 24.987L13.008 25L13.1841 24.8851L13.2109 24.8713C16.8921 22.9798 20.7791 22.2836 24.452 22.8547L25 22.9403V1.26886L24.588 1.20477ZM12.52 23.5907C9.7532 22.2828 6.88539 21.6147 4.0769 21.6147C3.36676 21.6147 2.66008 21.6573 1.96003 21.7434V2.18105C5.42152 1.73276 9.05666 2.39956 12.52 4.12027V23.5907ZM24.04 21.7434C20.5738 21.3166 16.9513 21.9515 13.48 23.5913V4.12027C16.9433 2.39983 20.5794 1.73324 24.04 2.18105V21.7434Z" fill="#ACACAC" stroke="#ACACAC" stroke-width="0.13"/>
<path d="M14.6973 11.1846L15.107 12.1303C17.5459 10.8763 20.1191 10.4139 22.5498 10.7923L22.6858 9.75733C20.0692 9.34929 17.3066 9.84277 14.6973 11.1846Z" fill="#ACACAC" stroke="#ACACAC" stroke-width="0.13"/>
<path d="M14.6973 6.99285L15.107 7.93849C17.5459 6.68449 20.1191 6.22187 22.5498 6.60048L22.6858 5.56553C20.0692 5.15702 17.3066 5.65102 14.6973 6.99285Z" fill="#ACACAC" stroke="#ACACAC" stroke-width="0.13"/>
</svg>
