<svg width="24" height="24" viewBox="0 0 24 24" fill="none" xmlns="http://www.w3.org/2000/svg">
<path d="M21.1676 0H2.83233C1.2705 0 0 2.06431 0 4.60144V8.86287V10.2274L0.831234 10.4211C1.3118 10.533 1.67423 11.2119 1.67423 12.0002C1.67423 12.7879 1.31198 13.4668 0.831656 13.5788L0 13.7719V15.1371V19.3991C0 21.9357 1.2705 24 2.83233 24H21.1676C22.7295 24 24 21.9357 24 19.3991V15.1654V13.663L23.0762 13.5929C22.5512 13.553 22.1397 12.8531 22.1397 12.0003C22.1397 11.1474 22.5512 10.4476 23.0766 10.4071L24 10.3363V8.83469V4.60151C24 2.06431 22.7295 0 21.1676 0ZM23.031 8.83469C21.9957 8.91404 21.1707 10.2988 21.1707 12.0003C21.1707 13.7018 21.9957 15.0866 23.031 15.1653V19.399C23.031 21.0704 22.1967 22.4257 21.1676 22.4257H2.83233C1.80328 22.4257 0.969047 21.0704 0.969047 19.399V15.137C1.91517 14.9168 2.64328 13.5984 2.64328 12.0002C2.64328 10.4021 1.91517 9.08362 0.969047 8.86287V4.60144C0.969047 2.92952 1.80333 1.57422 2.83233 1.57422H21.1676C22.1966 1.57422 23.031 2.92952 23.031 4.60144V8.83469Z" fill="#ACACAC"/>
<path d="M6.20506 17.7997H5.564V20.5158H6.20506V17.7997Z" fill="#ACACAC"/>
<path d="M6.20506 13.0278H5.564V15.7439H6.20506V13.0278Z" fill="#ACACAC"/>
<path d="M6.20506 8.25543H5.564V10.9721H6.20506V8.25543Z" fill="#ACACAC"/>
<path d="M6.20506 3.48419H5.564V6.20034H6.20506V3.48419Z" fill="#ACACAC"/>
</svg>
