<svg width="24" height="24" viewBox="0 0 24 24" fill="none" xmlns="http://www.w3.org/2000/svg">
<path d="M24 8.35671V3.48437C24 1.55998 23.0924 3.12076e-09 21.973 3.12076e-09H2.02697C0.907547 -8.0566e-05 0 1.5599 0 3.48429V8.38918C1.02923 8.64329 1.82128 10.1607 1.82128 12.0002C1.82128 13.8397 1.02923 15.3573 0 15.6107V20.5163C0 22.44 0.907547 24 2.02697 24H21.9729C23.0924 24 24 22.44 24 20.5163V15.6432C22.8737 15.5527 21.9762 13.9588 21.9762 12.0003C21.9763 10.0419 22.8738 8.44799 24 8.35671ZM5.69602 21.8017H4.99866V18.6754H5.69602V21.8017ZM5.69602 16.3092H4.99866V13.183H5.69602V16.3092ZM5.69602 10.8169H4.99866V7.69H5.69602V10.8169ZM5.69602 5.32457H4.99866V2.19833H5.69602V5.32457Z" fill="#EC3525"/>
</svg>
