<svg width="26" height="26" viewBox="0 0 26 26" fill="none" xmlns="http://www.w3.org/2000/svg">
<path d="M13 1C6.37258 1 1 6.37258 1 13C1 19.6274 6.37258 25 13 25C19.6274 25 25 19.6274 25 13C25 6.37258 19.6274 1 13 1Z" stroke="#ACACAC" stroke-width="1.152" stroke-linecap="round" stroke-linejoin="round"/>
<path d="M3.72519 20.6149C3.72519 20.6149 6.40001 17.2 13 17.2C19.6 17.2 22.2749 20.6149 22.2749 20.6149" stroke="#ACACAC" stroke-width="1.152" stroke-linecap="round" stroke-linejoin="round"/>
<path d="M12.6 14.2C14.5883 14.2 16.2 12.5883 16.2 10.6C16.2 8.61178 14.5883 7 12.6 7C10.6117 7 9 8.61178 9 10.6C9 12.5883 10.6117 14.2 12.6 14.2Z" stroke="#ACACAC" stroke-width="1.152" stroke-linecap="round" stroke-linejoin="round"/>
</svg>
