<svg width="148" height="150" viewBox="0 0 148 150" fill="none" xmlns="http://www.w3.org/2000/svg">
<g clip-path="url(#clip0_22_18)">
<path d="M135.663 100.519C122.376 135.025 84.0493 151.655 49.9684 137.702C15.8875 123.749 -0.936811 84.5392 12.3507 50.0326C25.6381 15.526 63.9647 -1.10411 98.0456 12.8491C124.941 23.8607 141.059 50.6034 140.155 78.3443C139.994 84.31 138.942 90.2526 137.135 96.1136C136.761 97.6677 136.231 99.044 135.663 100.519Z" fill="#EC3525"/>
<path d="M116.735 56.2344L46.1259 82.2204L25.2181 69.5967L116.735 56.2344Z" fill="white"/>
<path d="M46.5665 82.2282L48.1951 101.149L55.133 89.1706L116.719 56.0749L46.5665 82.2282Z" fill="#ACB3BA"/>
<path d="M48.3143 101.117L116.703 55.9203L55.231 89.11L48.3143 101.117Z" fill="#CED5E0"/>
<path d="M116.698 55.8696L84.0298 109.584L55.1971 89.0344L116.698 55.8696Z" fill="white"/>
</g>
<defs>
<clipPath id="clip0_22_18">
<rect width="133" height="136" fill="white" transform="translate(0.889679 14.4471) rotate(-5.88088)"/>
</clipPath>
</defs>
</svg>
