<svg width="64" height="64" viewBox="0 0 64 64" fill="none" xmlns="http://www.w3.org/2000/svg">
<g clip-path="url(#clip0_24_2)">
<path d="M32 62.6087C48.9047 62.6087 62.6087 48.9047 62.6087 32C62.6087 15.0953 48.9047 1.3913 32 1.3913C15.0953 1.3913 1.3913 15.0953 1.3913 32C1.3913 48.9047 15.0953 62.6087 32 62.6087Z" fill="#EC3525" fill-opacity="0.8"/>
<path d="M32 64C14.3304 64 0 49.6696 0 32C0 14.3304 14.3304 0 32 0C49.6696 0 64 14.3304 64 32C64 49.6696 49.6696 64 32 64ZM32 2.78261C15.8609 2.78261 2.78261 15.8609 2.78261 32C2.78261 48.1391 15.8609 61.2174 32 61.2174C48.1391 61.2174 61.2174 48.1391 61.2174 32C61.2174 15.8609 48.1391 2.78261 32 2.78261Z" fill="#EC3525" fill-opacity="0.8"/>
<path d="M41.4609 4.3826C49.1826 9.59999 54.2609 18.5043 54.2609 28.5217C54.2609 44.6609 41.1826 57.7391 25.0435 57.7391C21.7044 57.7391 18.5739 57.1826 15.5826 56.1391C20.2435 59.3391 25.9478 61.2174 32 61.2174C48.1391 61.2174 61.2174 48.1391 61.2174 32C61.2174 19.2 52.9391 8.27825 41.4609 4.3826Z" fill="#EC3525" fill-opacity="0.8"/>
<path d="M48 33.3913H16C15.2348 33.3913 14.6087 32.7652 14.6087 32C14.6087 31.2348 15.2348 30.6087 16 30.6087H48C48.7652 30.6087 49.3913 31.2348 49.3913 32C49.3913 32.7652 48.7652 33.3913 48 33.3913Z" fill="white"/>
</g>
<defs>
<clipPath id="clip0_24_2">
<rect width="64" height="64" fill="white"/>
</clipPath>
</defs>
</svg>
