<svg width="72" height="72" viewBox="0 0 72 72" fill="none" xmlns="http://www.w3.org/2000/svg">
<path d="M0.287168 51.3439C-2.09597 69.3228 10.6155 77.0294 28.689 68.5596C46.7599 60.0715 63.3289 38.6346 65.7124 20.6548C68.0969 2.6667 55.391 -5.03994 37.3187 3.45702C19.2455 11.9268 2.66826 33.3824 0.287168 51.3439Z" fill="url(#paint0_radial_36_71)"/>
<path d="M18.5 40C22.6421 40 26 38.433 26 36.5C26 34.567 22.6421 33 18.5 33C14.3579 33 11 34.567 11 36.5C11 38.433 14.3579 40 18.5 40Z" fill="#FF5978"/>
<path d="M28 34.5001C28 36.9854 23.7468 39 18.5 39C13.2532 39 9 36.9854 9 34.5001C9 32.0146 13.2532 30 18.5 30C23.7468 30 28 32.0146 28 34.5001Z" fill="#00537A"/>
<path d="M9 15H28V35H9V15Z" fill="#00537A"/>
<path d="M28 15.4998C28 17.9851 23.7468 20 18.5 20C13.2532 20 9 17.9851 9 15.4998C9 13.0146 13.2532 11 18.5 11C23.7468 11 28 13.0146 28 15.4998Z" fill="#002E47"/>
<path d="M25.7684 11L27 13H10L11.3523 11H25.7684Z" fill="#002E47"/>
<path d="M18.5 16C22.6421 16 26 14.2091 26 12C26 9.79086 22.6421 8 18.5 8C14.3579 8 11 9.79086 11 12C11 14.2091 14.3579 16 18.5 16Z" fill="#00537A"/>
<path d="M18.5 15C22.6421 15 26 13.433 26 11.5C26 9.567 22.6421 8 18.5 8C14.3579 8 11 9.567 11 11.5C11 13.433 14.3579 15 18.5 15Z" fill="white"/>
<path d="M25 10.9987C25 12.0408 23.7791 12.9777 21.9779 13.5182C21.1646 13.7615 20.2344 13.9236 19.2417 13.9773C19.2127 13.9811 19.1834 13.983 19.1541 13.983C18.7191 14.0057 18.2829 14.0057 17.8479 13.983C17.8185 13.983 17.7893 13.9811 17.7603 13.9773C16.7679 13.9236 15.8374 13.7615 15.0244 13.5182C13.2206 12.9777 12 12.0408 12 10.9987C12 9.37384 14.9775 8 18.501 8C22.0248 7.99972 25 9.37384 25 10.9987Z" fill="#00537A"/>
<path d="M18.4998 10C15.5171 10 13 10.9586 13 12.093C13 12.6749 13.6614 13.2095 14.7068 13.5942C15.5938 13.8093 16.609 13.9525 17.6917 14C15.2052 13.8533 13.2327 13.0402 13.2327 12.093C13.2327 11.0464 15.6449 10.1629 18.4998 10.1629C21.3547 10.1629 23.767 11.0464 23.767 12.093C23.767 13.0402 21.7948 13.8533 19.3079 14C20.3906 13.9525 21.4059 13.8093 22.2932 13.5942C23.3386 13.2095 24 12.6749 24 12.093C24 10.9583 21.4804 10 18.4998 10Z" fill="#002E47"/>
<path d="M12.5096 11.2679C12.5096 9.90587 15.2531 8.75508 18.5 8.75508C21.7472 8.75508 24.4904 9.90587 24.4904 11.2679C24.4904 11.5214 24.395 11.7675 24.2199 12C24.7158 11.6176 25 11.1833 25 10.7269C25 9.24875 22.0233 8 18.5 8C14.9767 8 12 9.24875 12 10.7269C12 11.183 12.2843 11.6173 12.7801 12C12.605 11.7675 12.5096 11.5214 12.5096 11.2679Z" fill="#FF5978"/>
<path d="M20.2447 10.3131L19.1157 10.0295C18.8898 9.97367 18.6512 9.99752 18.4411 10.097C18.231 10.1965 18.0624 10.3654 17.9644 10.5746L17.0926 12.4515C16.8131 13.0512 17.1945 13.7478 17.8558 13.8443L18.8649 13.9894C19.0643 14.0186 19.268 13.9871 19.449 13.8993C19.63 13.8114 19.7799 13.6713 19.8788 13.4973L20.8704 11.7589C21.1943 11.1901 20.8836 10.4717 20.2447 10.3131ZM19.688 12.7498L19.5083 13.1102C19.4838 13.1574 19.4448 13.1959 19.397 13.2199C19.3492 13.244 19.2949 13.2525 19.2419 13.2443L17.849 13.0287C17.8093 13.0223 17.7718 13.0067 17.7394 12.9831C17.707 12.9595 17.6808 12.9286 17.6628 12.893C17.6448 12.8574 17.6356 12.8181 17.636 12.7783C17.6364 12.7384 17.6463 12.6993 17.6649 12.664L17.9065 12.2024C17.9329 12.153 17.9751 12.1137 18.0265 12.0906C18.0779 12.0676 18.1356 12.0621 18.1905 12.075L19.5215 12.3935C19.5584 12.4025 19.5928 12.4197 19.6221 12.4437C19.6515 12.4677 19.675 12.4979 19.691 12.5321C19.707 12.5663 19.715 12.6036 19.7145 12.6413C19.7139 12.679 19.7049 12.7161 19.688 12.7498ZM19.1912 11.8229C18.6609 11.7965 18.2416 11.5417 18.2571 11.2561C18.2703 10.9705 18.712 10.7573 19.2419 10.7838C19.7722 10.8099 20.1892 11.0627 20.176 11.3506C20.1628 11.6359 19.7211 11.8467 19.1912 11.8229Z" fill="#FF5978"/>
<path d="M20.2447 10.2349L19.1157 10.0222C18.8898 9.98026 18.6513 9.99808 18.4411 10.0726C18.231 10.1472 18.0624 10.2738 17.9644 10.4308L17.0926 11.8384C16.8131 12.2882 17.1945 12.8106 17.8558 12.8833L18.8649 12.9921C19.0644 13.0139 19.268 12.9903 19.449 12.9243C19.63 12.8584 19.7799 12.7533 19.8788 12.6228L20.8704 11.319C21.1943 10.8924 20.8836 10.3536 20.2447 10.2349ZM19.688 12.0624L19.5083 12.3324C19.4839 12.3679 19.4449 12.3968 19.3971 12.4149C19.3492 12.4329 19.2949 12.4393 19.2419 12.433L17.849 12.2713C17.8093 12.2665 17.7718 12.2548 17.7394 12.2371C17.707 12.2194 17.6808 12.1963 17.6628 12.1696C17.6448 12.1428 17.6356 12.1133 17.636 12.0835C17.6364 12.0536 17.6463 12.0243 17.6649 11.9978L17.9065 11.6516C17.933 11.6146 17.9753 11.5852 18.0266 11.568C18.078 11.5507 18.1356 11.5465 18.1905 11.5561L19.5215 11.7949C19.5584 11.8017 19.5928 11.8146 19.6222 11.8327C19.6515 11.8507 19.675 11.8734 19.691 11.899C19.707 11.9247 19.715 11.9527 19.7145 11.981C19.7139 12.0093 19.7049 12.0371 19.688 12.0624ZM19.1912 11.367C18.6609 11.3474 18.2416 11.1561 18.2571 10.9419C18.2703 10.7277 18.712 10.568 19.2419 10.5876C19.7722 10.6075 20.1892 10.7971 20.176 11.0128C20.1628 11.2267 19.7211 11.3851 19.1912 11.367Z" fill="white"/>
<path d="M21.2403 27.0554C20.4641 27.16 19.5729 27.2539 18.6254 27.2539C17.5784 27.2539 16.6008 27.1396 15.7709 27.0225C14.8615 26.8939 14 27.3327 14 27.9222C14 28.1322 14.1094 28.3377 14.3208 28.4999C15.318 29.2646 16.8749 30 18.6254 30C20.1926 30 21.6048 29.4103 22.5991 28.7383C22.8555 28.5663 22.9988 28.339 23 28.1026V27.9569C23.0003 27.8195 22.952 27.6839 22.8586 27.5598C22.7653 27.4358 22.6292 27.3266 22.4605 27.2401C22.2918 27.1537 22.0946 27.0922 21.8835 27.0603C21.6723 27.0283 21.4526 27.0266 21.2403 27.0554Z" fill="#6A8AFF"/>
<path d="M21.2403 23.072C20.4641 23.2086 19.5729 23.3308 18.6254 23.3308C17.5784 23.3308 16.6008 23.182 15.7709 23.0292C14.8615 22.8621 14 23.4335 14 24.2011C14 24.4746 14.1094 24.7423 14.3208 24.9534C15.318 25.9493 18.1418 30 18.6254 30C19.0581 30 21.6048 26.1391 22.5991 25.2639C22.8555 25.0398 22.9989 24.7437 23 24.4358V24.246C23.0002 24.0671 22.9518 23.8905 22.8585 23.729C22.7651 23.5676 22.6291 23.4253 22.4604 23.3128C22.2917 23.2002 22.0945 23.1202 21.8834 23.0785C21.6723 23.0369 21.4526 23.0346 21.2403 23.072Z" fill="#FF5978"/>
<path d="M21.2403 33.0553C20.4641 33.1602 19.5729 33.254 18.6254 33.254C17.5784 33.254 16.6008 33.1398 15.7709 33.0224C14.8615 32.8941 14 33.3329 14 33.9223C14 34.1324 14.1094 34.3379 14.3208 34.5001C15.318 35.2648 16.8749 36 18.6254 36C20.1926 36 21.6048 35.4105 22.5991 34.7385C22.8555 34.5664 22.9989 34.3391 23 34.1026V33.9568C23.0002 33.8195 22.9518 33.6838 22.8585 33.5598C22.7651 33.4358 22.6291 33.3266 22.4604 33.2402C22.2917 33.1537 22.0945 33.0923 21.8834 33.0603C21.6723 33.0283 21.4526 33.0266 21.2403 33.0553Z" fill="white"/>
<path d="M21.2403 29.072C20.4641 29.2086 19.5729 29.3305 18.6254 29.3305C17.5784 29.3305 16.6008 29.182 15.7709 29.0292C14.8615 28.8621 14 29.4335 14 30.2011C14 30.4746 14.1094 30.7423 14.3208 30.9535C15.318 31.9491 18.3568 36 18.6254 36C18.8657 36 21.6048 32.1392 22.5991 31.264C22.8555 31.0399 22.9989 30.7438 23 30.4358V30.2461C23.0002 30.0672 22.9518 29.8905 22.8585 29.7291C22.7651 29.5676 22.6291 29.4253 22.4604 29.3128C22.2917 29.2002 22.0945 29.1202 21.8834 29.0785C21.6723 29.0369 21.4526 29.0346 21.2403 29.072Z" fill="#FF5978"/>
<path d="M18.5001 25C18.4344 25 18.3694 25.0197 18.3088 25.0581C18.2481 25.0965 18.193 25.1528 18.1465 25.2238C18.1001 25.2947 18.0632 25.379 18.0381 25.4717C18.013 25.5644 18 25.6638 18 25.7642C18 25.8645 18.0129 25.9639 18.038 26.0567C18.0631 26.1494 18.1 26.2337 18.1464 26.3047C18.1928 26.3757 18.2479 26.432 18.3086 26.4704C18.3692 26.5089 18.4342 26.5286 18.4999 26.5287C18.6325 26.5287 18.7597 26.4482 18.8535 26.3049C18.9473 26.1616 19 25.9672 19 25.7645C19 25.5618 18.9474 25.3674 18.8536 25.224C18.7599 25.0806 18.6327 25 18.5001 25ZM18.5001 31.4713C18.4344 31.4713 18.3694 31.4911 18.3088 31.5294C18.2481 31.5678 18.193 31.6241 18.1465 31.6951C18.1001 31.766 18.0632 31.8503 18.0381 31.943C18.013 32.0357 18 32.1351 18 32.2355C18 32.3359 18.0129 32.4353 18.038 32.528C18.0631 32.6208 18.1 32.705 18.1464 32.776C18.1928 32.847 18.2479 32.9033 18.3086 32.9418C18.3692 32.9802 18.4342 33 18.4999 33C18.6325 33 18.7597 32.9196 18.8535 32.7762C18.9473 32.6329 19 32.4385 19 32.2358C19 32.0331 18.9474 31.8387 18.8536 31.6953C18.7599 31.5519 18.6327 31.4714 18.5001 31.4713Z" fill="white"/>
<path d="M41.1954 17.1139C41.013 17.0979 40.6433 17.0957 40.5893 16.8689C40.5207 16.5814 41.0582 16.8197 41.5376 16.6722C41.6813 16.6277 42.2527 16.67 42.4714 16.7728C42.6907 16.8749 43.3454 16.8065 43.4456 16.8005C43.5457 16.7948 43.6873 17.9026 43.6873 17.9026C43.6873 17.9026 42.6785 18.0246 42.4561 18.123C42.2334 18.222 41.4151 18.5982 40.9101 18.6518C40.3339 18.7127 40.2742 18.2003 39.7611 18.1495C39.6895 18.1422 39.4871 18.1476 39.5329 17.9868C39.5788 17.8257 41.1696 17.4876 41.3736 17.2067C41.4477 17.1051 41.267 17.1203 41.1954 17.1139Z" fill="#FFACAC"/>
<path d="M49.5225 13.9969C51.6049 12.5423 54.231 10.7708 54.5757 10.5668C56.2167 9.59523 56.5294 10.3448 56.8014 11.2044C57.2622 12.6612 56.0446 13.8229 53.3312 15.2971C50.6185 16.7719 49.6895 16.7186 48.9975 16.5161C48.3055 16.314 47.4397 15.4509 49.5225 13.9969Z" fill="#5A5C71"/>
<path d="M49.5225 13.9968C50.9513 13.2735 53.3424 14.9655 51.1849 16.3025C49.0271 17.6399 43.7698 18.3282 43.7698 18.3282C42.5947 17.3321 43.4041 16.3473 43.4041 16.3473C43.4041 16.3473 46.7171 15.4171 49.5225 13.9968Z" fill="#5A5C71"/>
<path d="M52.7458 39.4849C53.012 39.3877 52.9906 38.7851 52.9906 38.7851L54.9787 38.4862C54.9787 38.4862 54.9505 40.0585 54.9274 40.3309C54.9067 40.5696 54.7604 41.1347 54.0368 41.0051C53.1434 40.8452 52.338 40.9786 52.0674 41.0562C51.7968 41.1337 51.2341 41.2009 50.5778 41.083C49.9405 40.9688 49.5147 40.6888 50.0433 40.2656C50.572 39.8418 52.1088 39.7173 52.7458 39.4849Z" fill="#002E47"/>
<path d="M56.709 30.2554C56.7101 30.7523 56.1118 35.3139 55.3814 39.0998C55.1678 40.2072 52.6229 39.3104 52.6073 38.8119C52.5777 37.87 53.2076 31.3187 53.5723 29.4273C53.8018 28.2369 56.706 28.7393 56.709 30.2554Z" fill="#00537A"/>
<path d="M60.0098 41.7095C59.9972 41.6093 60.056 41.3882 60.056 41.3882L61.7897 41.0767C61.7897 41.0767 61.9384 41.3378 61.9839 41.6723C62.0288 42.0069 62.0967 42.7315 62.1211 42.9434C62.1459 43.1556 62.1605 43.6737 61.6913 44.1666C61.222 44.6588 60.9782 44.8528 60.3449 44.6522C59.7113 44.4517 59.7161 43.6198 59.8227 43.1932C59.9293 42.7662 60.022 41.8101 60.0098 41.7095Z" fill="#002E47"/>
<path d="M61.8947 31.968C61.9897 32.4555 62.2658 37.049 62.2658 40.9067C62.2658 42.0353 59.5983 41.6509 59.4883 41.1644C59.2811 40.2461 58.6594 33.6942 58.6594 31.7668C58.6594 30.5538 61.6047 30.4806 61.8947 31.968ZM58.3002 23.2015C58.3297 24.1434 57.9253 25.4709 57.6999 26.3633C57.4744 27.2557 56.9124 30.3337 56.6167 31.2156C56.2313 32.3641 53.4103 31.974 53.4073 30.4579C53.4066 29.9609 53.2647 23.8763 53.9947 20.0904C54.2083 18.983 58.2842 22.7029 58.3002 23.2015Z" fill="#00537A"/>
<path d="M62.2658 24.213C62.6243 25.4677 62.1096 32.0051 61.9857 32.9284C61.8244 34.1302 58.9827 34.2976 58.6927 32.8099C58.5976 32.3227 57.5325 26.3566 57.5325 22.4991C57.5328 21.3703 62.1286 23.733 62.2658 24.213Z" fill="#00537A"/>
<path d="M57.253 9.995L59.7137 9.39398C59.7137 9.39398 60.1813 9.45106 60.3032 9.56836C60.513 9.77049 60.656 10.0473 60.7463 10.2734C60.859 10.5544 61.0373 10.806 61.276 11C61.276 11 62.8902 12.2004 63.2902 12.6488C64.8093 14.3545 62.717 23.1595 62.717 27.1036C62.717 27.1036 58.908 27.0355 56.8438 26.5187L56.4228 25.0354L55.7821 26.0514C55.0666 25.8527 53.377 24.657 53.3037 24.5665C53.231 24.476 53.9882 11.3834 55.507 10.2391C55.853 9.97861 57.253 9.995 57.253 9.995Z" fill="#5A5C71"/>
<path d="M62.934 16.9632C62.5483 16.1247 61.9092 14.8486 61.0661 14.5439C61.1602 14.8132 63.0579 22.197 63.0579 22.197C63.0579 22.197 64.0246 19.3329 62.934 16.9632ZM56.6826 10.8107C56.7707 10.5834 56.9246 10.383 57.1274 10.2315C57.3369 10.0782 57.6187 9.94074 57.8978 10.0164C57.8978 10.0164 57.2523 10.2384 57.3572 11.1188C57.4004 11.466 57.3423 12.038 57.3973 12.6835C57.4611 13.4239 57.034 15.7671 57.034 15.7671L55.9437 12.8818L56.472 12.3972L55.8955 12.02L56.6826 10.8107Z" fill="#002E47"/>
<path d="M60.1606 9.39648C60.4539 9.60964 60.6899 10.0927 59.9755 10.9296C59.6295 11.3351 59.2784 11.9847 58.9589 12.5063C58.7263 12.8863 57.273 14.777 57.0853 15.313C57.0853 15.313 57.0666 14.8249 57.0438 14.0331C57.0384 13.8546 57.0435 11.6029 57.2031 11.058C57.5824 9.76131 59.2462 8.73523 60.1606 9.39648Z" fill="white"/>
<path d="M59.8597 8.69647C59.8597 8.69647 59.893 9.0755 60.1483 9.7295C60.185 9.82347 60.1687 9.92816 60.1018 10.006C59.8356 10.3119 59.1107 11.0583 58.3654 11.0583C58.3654 11.0583 57.8217 10.6619 57.8217 10.194C57.8217 9.72572 59.8597 8.69647 59.8597 8.69647Z" fill="#FFACAC"/>
<path d="M58.6343 5.13668C60.9877 5.19596 60.3365 7.61771 60.3365 7.61771C60.3365 7.61771 60.5106 7.68992 60.4173 8.00147C60.3235 8.31333 60.3011 8.34613 60.2529 8.50033C60.205 8.65484 60.0865 8.94148 59.8502 8.8967C59.8502 8.8967 59.4947 9.73737 57.9572 10.2239C57.6897 10.3091 57.3359 10.2183 57.2628 9.96693C57.1895 9.7153 56.6761 8.98499 56.6574 8.42023C56.6435 7.99296 56.8174 8.02575 56.6985 7.78515C56.5793 7.54456 56.2809 5.07708 58.6343 5.13668Z" fill="#FFACAC"/>
<path d="M58.5192 4.97429C60.1212 4.90965 61.2563 6.17539 60.4631 7.82773C60.1738 7.42284 59.8465 7.90026 59.7983 8.05918C59.7721 8.14653 59.6842 8.51358 59.5382 8.51358C59.4326 8.51358 59.3993 8.15757 59.3993 8.15757C59.3993 7.14283 59.6672 7.02458 59.1243 6.78335C58.6615 6.57744 57.6377 7.3459 56.7294 7.34685C55.9165 7.3478 56.3182 5.06322 58.5192 4.97429Z" fill="#002E47"/>
<path d="M57.4201 11.635L58.0319 11.5203L58.4306 11.9829C58.4306 11.9829 58.3144 12.2244 57.998 12.5448C58.0788 12.6832 58.1348 13.008 58.0818 13.6027C57.8954 13.9672 57.0343 15.7678 57.0343 15.7678L57.0224 13.3924C57.1145 12.8333 57.1963 12.7005 57.4231 12.4019L57.4201 11.635Z" fill="#4B6DFF"/>
<path d="M59.9429 10.8445C60.6624 10.0114 60.1623 9.39646 60.1623 9.39646C60.4984 9.48727 60.6886 9.79693 60.7945 10.0795C60.8977 10.3547 60.9086 10.6521 60.8424 10.9372L60.4285 12.7245L59.9514 12.6791L60.0879 13.1508L57.034 15.7709C57.034 15.7709 58.2323 13.1284 58.8122 12.4136C59.3181 11.7895 59.6574 11.1721 59.9429 10.8445ZM59.9117 7.95823C59.9347 7.92508 59.9667 7.89811 60.0044 7.87997C60.0421 7.86183 60.0843 7.85316 60.1267 7.85481C60.1692 7.85647 60.2104 7.8684 60.2464 7.88941C60.2823 7.91043 60.3117 7.9398 60.3317 7.97462L60.3337 7.97809C60.3822 8.06168 60.4014 8.1572 60.3888 8.25139C60.3761 8.34558 60.3322 8.43378 60.2631 8.50375C59.8315 8.93166 59.2815 9.10887 59.0472 9.16784C59.01 9.17786 58.9702 9.17505 58.9351 9.15992C58.9 9.14479 58.8719 9.11837 58.8562 9.08554C58.8404 9.05271 58.8379 9.01569 58.8493 8.98132C58.8606 8.94695 58.885 8.91754 58.9178 8.89855C59.3793 8.63367 59.713 8.24045 59.9117 7.95823Z" fill="#002E47"/>
<path d="M60.385 7.63251C60.5086 7.74635 60.55 7.96645 60.3847 8.15029C60.3815 8.15387 60.3775 8.15682 60.3731 8.15897C60.3686 8.16112 60.3638 8.16242 60.3588 8.1628C60.3538 8.16318 60.3488 8.16263 60.344 8.16119C60.3392 8.15974 60.3348 8.15743 60.331 8.15439C60.3272 8.15144 60.324 8.14781 60.3217 8.14372C60.3194 8.13963 60.318 8.13515 60.3175 8.13055C60.3171 8.12595 60.3176 8.12131 60.3191 8.11691C60.3206 8.1125 60.3231 8.10841 60.3263 8.10488C60.4631 7.95384 60.4315 7.77473 60.3317 7.68265C60.2526 7.61012 60.1107 7.57733 59.948 7.70599C59.5524 8.01848 59.6754 8.51796 59.6771 8.52301C59.6782 8.52752 59.6784 8.53221 59.6776 8.53679C59.6768 8.54137 59.6751 8.54576 59.6725 8.54972C59.6698 8.55367 59.6664 8.55711 59.6624 8.55983C59.6583 8.56255 59.6537 8.5645 59.6489 8.56558C59.6461 8.5663 59.6433 8.56673 59.6404 8.56684C59.6318 8.56684 59.6235 8.56417 59.6168 8.55925C59.6101 8.55433 59.6054 8.54745 59.6034 8.53972C59.5979 8.51733 59.4689 7.99293 59.8995 7.65269C60.1001 7.49282 60.2862 7.54201 60.385 7.63251Z" fill="#4B6DFF"/>
<path d="M65.5095 24.8932C65.5095 24.8932 64.3258 24.7034 64.3037 24.7939C64.281 24.885 64.1649 25.4873 63.9961 25.6531C63.8277 25.8187 63.6212 26.3153 63.626 26.4557C63.6409 26.9242 63.2416 27.3351 63.5584 27.3559C63.8077 27.3726 63.916 27.0444 63.9842 26.8864C64.011 26.8246 64.047 26.6594 64.1309 26.7543C64.3625 27.0157 64.2576 28.5283 64.4107 28.6151C64.5635 28.7018 64.6155 28.5201 64.6433 28.4587C64.8426 28.0166 65.3883 28.1096 65.4898 27.5795C65.5787 27.1147 65.4243 26.2791 65.3859 26.0524C65.3475 25.8259 65.5095 24.8932 65.5095 24.8932Z" fill="#FFACAC"/>
<path d="M62.4199 12.0485C61.6682 11.793 60.35 12.7671 60.8838 14.5052C60.9962 14.87 62.3276 17.0323 63.2335 19.3017C64.1394 21.5702 65.2772 21.0461 65.6837 20.4883C66.0901 19.9299 65.8473 19.2875 65.1007 16.4524C64.3537 13.6166 63.5822 12.4432 62.4199 12.0485Z" fill="#5A5C71"/>
<path d="M63.3873 19.7147C63.9819 22.3102 63.8929 25.2482 63.8929 25.2482C63.8929 25.2482 64.5954 26.144 65.8144 25.4629C65.8144 25.4629 66.4321 21.2309 65.7492 19.1727C65.066 17.1145 63.0844 18.3929 63.3873 19.7147Z" fill="#5A5C71"/>
<path d="M27.8769 66.5605L2.00184 52.6872C2.00049 52.6863 1.99947 52.685 1.99947 52.6834L2.12612 46.0993C2.12646 46.0977 2.12714 46.0961 2.12849 46.0955L33.9569 29.0301C33.9575 29.0296 33.9584 29.0294 33.9592 29.0294C33.9601 29.0294 33.9609 29.0296 33.9616 29.0301L71.9932 49.4216C71.9939 49.422 71.9945 49.4225 71.9949 49.4231C71.9953 49.4238 71.9956 49.4245 71.9956 49.4253C71.9956 49.426 71.9953 49.4267 71.9949 49.4274C71.9945 49.428 71.9939 49.4285 71.9932 49.4289L40.1682 66.4924L40.1659 66.4931L27.8793 66.5609C27.8789 66.561 27.8784 66.5611 27.878 66.5611C27.8776 66.561 27.8772 66.5608 27.8769 66.5605Z" fill="white"/>
<path d="M34.2102 30.7603L4.51757 46.6805L4.3624 52.0871L28.995 65.2942L39.0786 65.2113L68.7709 49.2908L34.2102 30.7603Z" fill="#FFB642"/>
<path d="M5.05235 51.7286L5.18614 47.05L34.2102 31.4884L67.4127 49.2908L38.8939 64.5822L29.1743 64.6619L5.05235 51.7286Z" fill="#FFB642"/>
<path d="M29.1519 64.7411L29.1319 64.7304L4.96611 51.7734L5.10295 47.0037L5.14403 46.9816L34.2102 31.3973L34.2526 31.42L67.5824 49.2908L67.4551 49.3592L38.917 64.6604L38.8949 64.6607L29.1519 64.7411ZM5.13826 51.6835L29.1967 64.5828L38.8708 64.5033L67.2429 49.2908L34.2102 31.5795L5.27001 47.0961L5.13826 51.6835Z" fill="white"/>
<path d="M27.8782 66.564V71.9912C27.8782 71.995 27.8738 71.9975 27.8704 71.9956L2.00252 58.126C2.00169 58.1256 2.00099 58.1249 2.00052 58.1242C2.00004 58.1234 1.99979 58.1225 1.9998 58.1216V52.6944C1.9998 52.6907 2.00422 52.6881 2.00761 52.6903L27.8759 66.5599C27.8769 66.5608 27.8782 66.5624 27.8782 66.564Z" fill="#FFDE91"/>
<path d="M40.1669 66.4984V71.9268C40.1669 71.9297 40.1645 71.9319 40.1618 71.9319L27.8833 72C27.8819 72 27.8805 71.9995 27.8795 71.9985C27.8785 71.9976 27.8779 71.9963 27.8779 71.9949V66.5662C27.8779 66.5633 27.8803 66.5611 27.883 66.5611L40.1614 66.4933C40.1648 66.4933 40.1669 66.4956 40.1669 66.4984Z" fill="#FFB642"/>
<path d="M72 49.4336V54.8608C72 54.8617 71.9998 54.8626 71.9993 54.8633C71.9988 54.8641 71.9981 54.8647 71.9973 54.8652L40.1747 71.9272C40.1739 71.9276 40.173 71.9279 40.1721 71.9279C40.1712 71.9279 40.1703 71.9277 40.1695 71.9273C40.1687 71.9269 40.168 71.9263 40.1675 71.9255C40.1671 71.9248 40.1669 71.9239 40.1669 71.9231V66.4959C40.1669 66.494 40.1679 66.4924 40.1696 66.4915L71.9922 49.4292C71.9956 49.4276 72 49.4301 72 49.4336Z" fill="#FF5978"/>
<path d="M13.1628 58.9875V61.0214C13.1628 61.3153 13.3313 61.5871 13.6046 61.7353L16.5889 63.3495C16.664 63.39 16.7492 63.4114 16.836 63.4116C16.9228 63.4118 17.0081 63.3908 17.0834 63.3506C17.1586 63.3104 17.2212 63.2525 17.2647 63.1827C17.3082 63.1129 17.3311 63.0338 17.3312 62.9532V61.227C17.3312 61.0318 17.4435 60.8515 17.6259 60.7537L23.7503 57.4825C23.7922 57.4602 23.827 57.4282 23.8516 57.3896C23.8761 57.3511 23.8895 57.3073 23.8904 57.2625C23.8913 57.2177 23.8797 57.1735 23.8567 57.1341C23.8337 57.0947 23.8001 57.0616 23.7592 57.0378L20.5402 55.1692C20.3946 55.0846 20.2266 55.0388 20.0548 55.0369C19.883 55.0349 19.7139 55.0769 19.5661 55.1581L13.4515 58.5177C13.2725 58.6164 13.1628 58.7949 13.1628 58.9875Z" fill="#00537A"/>
<path d="M30.6799 52.6541C38.2056 57.6474 40.0304 55.6441 40.0304 55.6441C40.0304 55.6441 40.2596 55.0487 40.701 54.5975C40.7805 54.5095 43.5756 51.388 43.9637 46.8778C44.1787 44.3804 44.1773 42.9715 44.377 42.1315C44.3888 42.081 44.3199 42.0507 44.287 42.0927C42.6802 44.1575 38.2308 46.9324 33.9151 46.4436C29.4402 45.9372 24.0916 45.9829 21.4485 46.6495C18.8058 47.3161 19.1522 48.7238 19.1522 48.7241C19.4235 48.6087 26.5061 49.8848 30.6799 52.6541Z" fill="#FFB642"/>
<path d="M38.6097 56.1988C37.2325 56.1988 34.7701 55.5618 30.5811 52.7828C26.5048 50.0782 19.5834 48.8314 19.1963 48.8755L19.0048 48.9572L18.9861 48.7579C18.9708 48.6945 18.6503 47.1923 21.404 46.4976C23.9867 45.8464 29.2572 45.7572 33.9355 46.2873C38.062 46.7552 42.5176 44.0979 44.1495 42.0003C44.1788 41.962 44.2215 41.9343 44.2704 41.922C44.3193 41.9098 44.3713 41.9137 44.4174 41.9332C44.4641 41.9523 44.5021 41.9859 44.525 42.0283C44.5478 42.0706 44.5541 42.1191 44.5427 42.1652C44.4221 42.6717 44.377 43.3865 44.308 44.4691C44.2666 45.1212 44.2153 45.9328 44.1328 46.8905C43.7423 51.4297 40.9495 54.5679 40.8307 54.699C40.4124 55.127 40.192 55.6917 40.1896 55.6974L40.1594 55.7463C40.1248 55.7847 39.72 56.1988 38.6097 56.1988ZM19.3056 48.5728C20.6068 48.6544 26.9316 49.9735 30.7783 52.5258C37.659 57.0912 39.6796 55.7251 39.8844 55.5564C39.9418 55.418 40.173 54.9027 40.5754 54.4916C40.6867 54.3679 43.4123 51.3054 43.7943 46.8649C43.8765 45.9111 43.9277 45.101 43.9692 44.4501C44.0211 43.6287 44.0602 43.0163 44.1294 42.5376C42.3122 44.5684 38.0956 47.0772 33.8944 46.6001C29.2544 46.075 24.039 46.1599 21.493 46.8019C19.4669 47.313 19.2982 48.2436 19.3056 48.5728Z" fill="white"/>
<path d="M28.8008 49.6749C28.0266 49.9158 27.3631 50.2872 26.8616 50.7236C28.213 51.261 29.5488 51.9036 30.6799 52.6541C31.1 52.9331 31.5259 53.2045 31.9572 53.4683C33.0458 52.7206 33.6115 51.6879 33.289 50.794C32.838 49.5446 30.8286 49.0436 28.8008 49.6749Z" fill="#0DCA6F"/>
<path d="M40.2657 45.4049C38.3989 46.3143 36.1813 46.9034 33.9969 46.6561C33.9008 46.6451 33.8027 46.636 33.7063 46.6256C33.2747 47.4766 33.2523 48.3384 33.7457 48.9439C34.6013 49.9949 36.678 49.8757 38.3839 48.6774C39.7109 47.7453 40.4185 46.4357 40.2657 45.4049Z" fill="#FF2657"/>
<path d="M43.0106 50.7469C42.0381 49.7855 39.9536 49.9514 38.225 51.1654C36.4176 52.4349 35.6875 54.3666 36.5945 55.4804C36.6902 55.598 36.8033 55.6986 36.9259 55.7888C39.3133 56.4305 40.0307 55.6444 40.0307 55.6444C40.0307 55.6444 40.2599 55.049 40.7013 54.5978C40.755 54.5379 42.0565 53.0829 43.0106 50.7469Z" fill="#0DCA6F"/>
<path d="M41.4762 48.7601C41.7631 49.5553 40.8898 50.5442 39.5255 50.969C38.1612 51.3937 36.8227 51.0935 36.5354 50.2983C36.2485 49.503 37.1215 48.5141 38.4861 48.0894C39.8508 47.6646 41.1893 47.9648 41.4762 48.7601ZM25.2471 47.4814C25.4016 47.909 24.8834 48.4561 24.0899 48.7033C23.2964 48.9502 22.5276 48.8036 22.3735 48.376C22.2193 47.9484 22.7371 47.4013 23.531 47.1541C24.3242 46.9072 25.0926 47.0538 25.2471 47.4814Z" fill="#FF5978"/>
<path d="M27.9475 47.1601C28.0103 47.3338 27.7998 47.5555 27.4779 47.6558C27.1557 47.7557 26.844 47.6964 26.7815 47.523C26.7187 47.3493 26.9292 47.1273 27.2511 47.0273C27.573 46.9267 27.885 46.9863 27.9475 47.1601Z" fill="white"/>
<path d="M37.4413 53.2886C37.535 53.549 37.2199 53.8817 36.7371 54.0321C36.2539 54.1825 35.7863 54.093 35.6923 53.8328C35.5982 53.5727 35.9137 53.2397 36.3965 53.0893C36.8794 52.9392 37.3473 53.0284 37.4413 53.2886Z" fill="#FFDE91"/>
<path d="M35.3022 50.9551C35.4784 51.4433 34.8869 52.0676 33.981 52.3495C33.0754 52.6318 32.198 52.4643 32.0221 51.9762C31.8459 51.4877 32.4374 50.8637 33.343 50.5815C34.2489 50.2999 35.1259 50.467 35.3022 50.9551Z" fill="#FF5978"/>
<path d="M31.5861 48.8077C31.7949 49.3863 31.1596 50.1059 30.1668 50.4149C29.174 50.7239 28.1998 50.5054 27.991 49.9268C27.7821 49.3482 28.4178 48.6286 29.4106 48.3192C30.4035 48.0105 31.3773 48.229 31.5861 48.8077Z" fill="#FF2657"/>
<path d="M45.5345 40.9171C44.0238 41.3772 44.3576 42.3024 43.9637 46.8779C43.5756 51.3884 40.7808 54.5095 40.701 54.5975C40.2596 55.049 39.9839 55.5157 39.9839 55.5157C39.9839 55.5157 38.2056 57.6474 30.6799 52.6541C26.5061 49.8849 19.5487 48.5699 19.2774 48.6853C19.1926 48.7216 19.2072 48.8638 19.2673 49.042C19.4601 49.614 19.9728 50.0447 20.5946 50.2062C22.5833 50.7227 27.6769 52.2426 31.3233 55.056C35.9459 58.6227 39.9353 58.2295 41.8103 57.3554C42.6561 56.9609 43.3284 56.4557 43.6649 55.9244C46.1643 52.7582 47.3894 47.2827 47.4353 45.3488C47.4842 43.3099 47.0448 40.4571 45.5345 40.9171Z" fill="#FFA044"/>
<path d="M38.7764 58.109C36.8668 58.109 34.2363 57.5086 31.215 55.1774C27.6012 52.3889 22.5521 50.8781 20.5491 50.3581C19.852 50.1771 19.3124 49.7026 19.1056 49.0892C19.069 48.9805 18.9573 48.6494 19.2065 48.5425C19.5596 48.3943 26.5917 49.7483 30.7787 52.526C38.0871 57.3755 39.8328 55.44 39.8501 55.4195H39.8497C39.8474 55.4195 40.1261 54.9516 40.5754 54.4921C40.6867 54.3685 43.4123 51.306 43.7943 46.8655C43.8768 45.9091 43.9281 45.0978 43.9695 44.4454C44.1291 41.9252 44.1773 41.1646 45.4815 40.7676C45.8374 40.6579 46.1643 40.7036 46.4502 40.9004C47.3664 41.5311 47.6451 43.693 47.6057 45.3526C47.5636 47.1266 46.4095 52.7156 43.8024 56.018C43.467 56.5491 42.7835 57.0788 41.8867 57.4966C41.5183 57.6682 40.412 58.1087 38.7764 58.109ZM19.3895 48.8367C19.3932 48.8685 19.4038 48.9187 19.4292 48.995C19.6017 49.5061 20.0543 49.9022 20.6404 50.0545C22.6645 50.5801 27.7676 52.1079 31.4316 54.9349C36.878 59.137 40.9689 57.5714 41.7342 57.2147C42.5729 56.824 43.2069 56.3375 43.5189 55.8446C46.0903 52.586 47.2244 47.0904 47.2658 45.3456C47.3066 43.6359 47.0075 41.6767 46.2479 41.1536C46.053 41.019 45.8367 40.9909 45.5871 41.0672C44.5359 41.3873 44.4717 41.8833 44.3084 44.4636C44.2594 45.2731 44.2008 46.0821 44.1328 46.8904C43.7423 51.4296 40.9495 54.5678 40.8307 54.699C40.4049 55.1348 40.1353 55.5873 40.1326 55.5917C40.0413 55.7046 38.1527 57.8063 30.5811 52.7827C26.5608 50.115 20.2027 48.8811 19.3895 48.8367Z" fill="white"/>
<path d="M45.528 40.9215C44.0174 41.3816 44.3512 42.3065 43.9576 46.8819C43.5695 51.3928 40.7743 54.5136 40.6949 54.6016C40.4265 54.8787 40.1896 55.1808 39.9879 55.5031L40.0239 55.6482L40.0314 55.6523C40.885 56.1054 40.6871 57.304 39.7279 57.5045C38.8409 57.6899 37.5143 57.7789 35.6872 57.4386C38.3713 58.3086 40.5564 57.9416 41.8042 57.3595C42.6497 56.9653 43.3223 56.4601 43.6592 55.9285C46.1582 52.7622 47.3837 47.2868 47.4295 45.3532C47.4781 43.314 47.0387 40.4615 45.528 40.9215Z" fill="#FFDE91"/>
<path d="M38.7958 58.1107C37.8936 58.1107 36.8288 57.976 35.6312 57.5878L35.7205 57.2845C37.2254 57.5648 38.5615 57.5878 39.6905 57.351C40.1387 57.2574 40.3468 56.9263 40.3917 56.6478C40.4365 56.371 40.3431 56.0001 39.9469 55.7895L39.8827 55.7558L39.8076 55.4795L39.8399 55.4266C39.8891 55.3452 40.1557 54.9192 40.5689 54.4963C40.6803 54.3727 43.4058 51.3102 43.7878 46.8697C43.8704 45.9133 43.9216 45.102 43.963 44.4499C44.1226 41.9297 44.1709 41.1691 45.4751 40.7718C45.8319 40.663 46.1579 40.7081 46.4438 40.9049C47.3596 41.5356 47.6387 43.6975 47.5989 45.3571C47.5568 47.1311 46.4027 52.7198 43.7956 56.0222C43.4605 56.5529 42.7767 57.0827 41.8799 57.5008C41.4799 57.6875 40.3937 58.1107 38.7958 58.1107ZM40.1733 55.5483C40.5917 55.798 40.8025 56.231 40.7275 56.6945C40.6487 57.1817 40.28 57.5513 39.7649 57.6591C39.4593 57.7228 39.1394 57.7688 38.8063 57.7966C40.3231 57.795 41.3482 57.3961 41.7278 57.2192C42.5668 56.8282 43.2008 56.3417 43.5125 55.8491C46.0839 52.5905 47.2183 47.0952 47.2597 45.3504C47.3005 43.6407 47.0013 41.6816 46.2418 41.1584C46.0465 41.0241 45.8309 40.9954 45.581 41.0717C44.5298 41.3918 44.4656 41.8878 44.3023 44.4682C44.2608 45.1215 44.2096 45.9348 44.1267 46.8946C43.7362 51.4341 40.9434 54.572 40.8246 54.7032C40.578 54.9583 40.3582 55.2348 40.1682 55.5287L40.1733 55.5483Z" fill="white"/>
<defs>
<radialGradient id="paint0_radial_36_71" cx="0" cy="0" r="1" gradientUnits="userSpaceOnUse" gradientTransform="translate(32.9992 36.0042) rotate(-51.9027) scale(41.9523 23.8398)">
<stop stop-color="#B0BED9"/>
<stop offset="0.206" stop-color="#C7D1E4"/>
<stop offset="0.53" stop-color="#E6EAF3"/>
<stop offset="0.806" stop-color="#F8FAFC"/>
<stop offset="1" stop-color="white"/>
</radialGradient>
</defs>
</svg>
